<svg width="239" height="42" viewBox="0 0 239 42" fill="none" xmlns="http://www.w3.org/2000/svg">
<rect width="239" height="42" rx="4" fill="#11111B"/>
<path d="M44.1682 12.899H49.9747C51.4447 12.899 52.5962 13.2992 53.4292 14.0995C54.2622 14.8998 54.6787 15.9697 54.6787 17.309C54.6787 18.338 54.4255 19.1465 53.9192 19.7345C53.4292 20.3225 52.7922 20.739 52.0082 20.984V21.0575C52.9719 21.2862 53.764 21.719 54.3847 22.356C55.0054 22.9767 55.3157 23.8832 55.3157 25.0755C55.3157 25.7615 55.2014 26.4067 54.9727 27.011C54.744 27.6153 54.4174 28.138 53.9927 28.579C53.5844 29.02 53.0944 29.3712 52.5227 29.6325C51.9674 29.8775 51.363 30 50.7097 30H44.1682V12.899ZM50.0972 28.2115C51.0445 28.2115 51.7877 27.9992 52.3267 27.5745C52.8657 27.1498 53.1352 26.4965 53.1352 25.6145V24.61C53.1352 23.7443 52.8657 23.0992 52.3267 22.6745C51.7877 22.2335 51.0445 22.013 50.0972 22.013H46.2262V28.2115H50.0972ZM49.7542 20.3225C50.6199 20.3225 51.2977 20.1347 51.7877 19.759C52.2777 19.367 52.5227 18.779 52.5227 17.995V17.0395C52.5227 16.2555 52.2777 15.6675 51.7877 15.2755C51.2977 14.8835 50.6199 14.6875 49.7542 14.6875H46.2262V20.3225H49.7542ZM64.2731 30.294C63.3585 30.294 62.5336 30.1388 61.7986 29.8285C61.08 29.5182 60.4593 29.0772 59.9366 28.5055C59.4303 27.9175 59.0383 27.2233 58.7606 26.423C58.483 25.6063 58.3441 24.6998 58.3441 23.7035C58.3441 22.6908 58.483 21.7762 58.7606 20.9595C59.0546 20.1428 59.4548 19.4487 59.9611 18.877C60.4675 18.289 61.0718 17.8398 61.7741 17.5295C62.4928 17.2192 63.285 17.064 64.1506 17.064C65 17.064 65.7676 17.2192 66.4536 17.5295C67.156 17.8398 67.7521 18.2727 68.2421 18.828C68.7321 19.367 69.1078 20.0122 69.3691 20.7635C69.6305 21.5148 69.7611 22.3397 69.7611 23.238V24.169H60.4021V24.757C60.4021 25.3123 60.492 25.8268 60.6716 26.3005C60.8513 26.7742 61.1045 27.1825 61.4311 27.5255C61.7741 27.8685 62.1825 28.138 62.6561 28.334C63.1461 28.5137 63.6851 28.6035 64.2731 28.6035C65.1225 28.6035 65.8575 28.4075 66.4781 28.0155C67.0988 27.6235 67.5725 27.0845 67.8991 26.3985L69.3446 27.3785C68.969 28.2278 68.3401 28.9302 67.4581 29.4855C66.5925 30.0245 65.5308 30.294 64.2731 30.294ZM64.1506 18.681C63.6116 18.681 63.1135 18.779 62.6561 18.975C62.1988 19.171 61.7986 19.4405 61.4556 19.7835C61.129 20.1265 60.8676 20.5348 60.6716 21.0085C60.492 21.4658 60.4021 21.9722 60.4021 22.5275V22.699H67.6541V22.4295C67.6541 21.8742 67.5643 21.3678 67.3846 20.9105C67.2213 20.4532 66.9845 20.0612 66.6741 19.7345C66.3801 19.3915 66.0126 19.1302 65.5716 18.9505C65.147 18.7708 64.6733 18.681 64.1506 18.681ZM79.3556 30C78.3919 30 77.6814 29.7305 77.2241 29.1915C76.7831 28.6525 76.5626 27.9583 76.5626 27.109V19.024H72.3486V17.358H75.4846C75.9092 17.358 76.2032 17.2763 76.3666 17.113C76.5462 16.9333 76.6361 16.6312 76.6361 16.2065V12.899H78.5226V17.358H84.2801V19.024H78.5226V28.334H84.2801V30H79.3556ZM98.211 30C97.4433 30 96.8962 29.804 96.5695 29.412C96.2428 29.02 96.0387 28.53 95.957 27.942H95.8345C95.5568 28.677 95.1077 29.2568 94.487 29.6815C93.8827 30.0898 93.066 30.294 92.037 30.294C90.714 30.294 89.6605 29.951 88.8765 29.265C88.0925 28.579 87.7005 27.6398 87.7005 26.4475C87.7005 25.2715 88.1252 24.365 88.9745 23.728C89.8402 23.091 91.2285 22.7725 93.1395 22.7725H95.8345V21.523C95.8345 20.592 95.5732 19.8978 95.0505 19.4405C94.5278 18.9668 93.7847 18.73 92.821 18.73C91.9717 18.73 91.2775 18.9015 90.7385 19.2445C90.1995 19.5712 89.7667 20.0203 89.44 20.592L88.117 19.612C88.2803 19.2853 88.5008 18.9668 88.7785 18.6565C89.0562 18.3462 89.3992 18.0767 89.8075 17.848C90.2158 17.603 90.6813 17.4152 91.204 17.2845C91.7267 17.1375 92.3065 17.064 92.9435 17.064C94.4298 17.064 95.6058 17.4397 96.4715 18.191C97.3535 18.9423 97.7945 19.9877 97.7945 21.327V28.285H99.5585V30H98.211ZM92.38 28.6525C92.8863 28.6525 93.3437 28.5953 93.752 28.481C94.1767 28.3503 94.5442 28.187 94.8545 27.991C95.1648 27.7787 95.4017 27.5337 95.565 27.256C95.7447 26.962 95.8345 26.6517 95.8345 26.325V24.2425H93.1395C91.9635 24.2425 91.106 24.4058 90.567 24.7325C90.028 25.0592 89.7585 25.5328 89.7585 26.1535V26.668C89.7585 27.3213 89.9872 27.8195 90.4445 28.1625C90.9182 28.4892 91.5633 28.6525 92.38 28.6525ZM117.669 30V12.899H123.892C125.477 12.899 126.685 13.3318 127.518 14.1975C128.351 15.0632 128.768 16.2718 128.768 17.8235C128.768 19.3752 128.351 20.5838 127.518 21.4495C126.685 22.3152 125.477 22.748 123.892 22.748H119.727V30H117.669ZM119.727 20.9595H123.843C124.709 20.9595 125.379 20.7472 125.852 20.3225C126.342 19.8815 126.587 19.2608 126.587 18.4605V17.1865C126.587 16.3862 126.342 15.7737 125.852 15.349C125.379 14.908 124.709 14.6875 123.843 14.6875H119.727V20.9595ZM138.289 14.565C137.717 14.565 137.317 14.4507 137.088 14.222C136.86 13.977 136.745 13.6748 136.745 13.3155V12.9235C136.745 12.5642 136.86 12.2702 137.088 12.0415C137.317 11.7965 137.717 11.674 138.289 11.674C138.86 11.674 139.261 11.7965 139.489 12.0415C139.718 12.2702 139.832 12.5642 139.832 12.9235V13.3155C139.832 13.6748 139.718 13.977 139.489 14.222C139.261 14.4507 138.86 14.565 138.289 14.565ZM132.752 28.334H137.309V19.024H132.752V17.358H139.269V28.334H143.532V30H132.752V28.334ZM152.636 30.294C151.722 30.294 150.905 30.1388 150.186 29.8285C149.484 29.5018 148.888 29.0527 148.398 28.481C147.908 27.9093 147.532 27.2152 147.271 26.3985C147.026 25.5818 146.903 24.6753 146.903 23.679C146.903 22.6827 147.034 21.7762 147.295 20.9595C147.557 20.1428 147.932 19.4487 148.422 18.877C148.912 18.289 149.508 17.8398 150.211 17.5295C150.913 17.2192 151.713 17.064 152.612 17.064C153.837 17.064 154.833 17.3335 155.601 17.8725C156.368 18.4115 156.932 19.1138 157.291 19.9795L155.723 20.8125C155.495 20.1592 155.111 19.6528 154.572 19.2935C154.049 18.9342 153.396 18.7545 152.612 18.7545C152.04 18.7545 151.526 18.8525 151.068 19.0485C150.627 19.2282 150.252 19.4895 149.941 19.8325C149.631 20.1755 149.394 20.5838 149.231 21.0575C149.084 21.5312 149.01 22.0457 149.01 22.601V24.757C149.01 25.3123 149.084 25.8268 149.231 26.3005C149.394 26.7742 149.631 27.1825 149.941 27.5255C150.252 27.8685 150.635 28.138 151.093 28.334C151.55 28.5137 152.073 28.6035 152.661 28.6035C153.51 28.6035 154.212 28.4075 154.768 28.0155C155.323 27.6235 155.764 27.0845 156.091 26.3985L157.487 27.354C157.112 28.2033 156.524 28.9057 155.723 29.461C154.939 30.0163 153.91 30.294 152.636 30.294ZM167.498 30C166.534 30 165.824 29.7305 165.367 29.1915C164.926 28.6525 164.705 27.9583 164.705 27.109V19.024H160.491V17.358H163.627C164.052 17.358 164.346 17.2763 164.509 17.113C164.689 16.9333 164.779 16.6312 164.779 16.2065V12.899H166.665V17.358H172.423V19.024H166.665V28.334H172.423V30H167.498ZM181.576 30.294C180.694 30.294 179.894 30.1388 179.175 29.8285C178.473 29.5182 177.868 29.0772 177.362 28.5055C176.872 27.9175 176.496 27.2233 176.235 26.423C175.974 25.6063 175.843 24.6917 175.843 23.679C175.843 22.6827 175.974 21.7762 176.235 20.9595C176.496 20.1428 176.872 19.4487 177.362 18.877C177.868 18.289 178.473 17.8398 179.175 17.5295C179.894 17.2192 180.694 17.064 181.576 17.064C182.458 17.064 183.25 17.2192 183.953 17.5295C184.671 17.8398 185.276 18.289 185.766 18.877C186.272 19.4487 186.656 20.1428 186.917 20.9595C187.178 21.7762 187.309 22.6827 187.309 23.679C187.309 24.6917 187.178 25.6063 186.917 26.423C186.656 27.2233 186.272 27.9175 185.766 28.5055C185.276 29.0772 184.671 29.5182 183.953 29.8285C183.25 30.1388 182.458 30.294 181.576 30.294ZM181.576 28.6035C182.67 28.6035 183.552 28.2768 184.222 27.6235C184.892 26.9702 185.227 25.9575 185.227 24.5855V22.7725C185.227 21.4005 184.892 20.3878 184.222 19.7345C183.552 19.0812 182.67 18.7545 181.576 18.7545C180.482 18.7545 179.6 19.0812 178.93 19.7345C178.26 20.3878 177.926 21.4005 177.926 22.7725V24.5855C177.926 25.9575 178.26 26.9702 178.93 27.6235C179.6 28.2768 180.482 28.6035 181.576 28.6035ZM190.803 28.334H194.503V19.024H190.803V17.358H196.463V20.543H196.585C196.846 19.5467 197.336 18.7708 198.055 18.2155C198.79 17.6438 199.721 17.358 200.848 17.358H202.612V19.318H200.236C199.109 19.318 198.194 19.6447 197.492 20.298C196.806 20.9513 196.463 21.8088 196.463 22.8705V28.334H201.363V30H190.803V28.334ZM211.741 14.565C211.169 14.565 210.769 14.4507 210.54 14.222C210.312 13.977 210.197 13.6748 210.197 13.3155V12.9235C210.197 12.5642 210.312 12.2702 210.54 12.0415C210.769 11.7965 211.169 11.674 211.741 11.674C212.313 11.674 212.713 11.7965 212.941 12.0415C213.17 12.2702 213.284 12.5642 213.284 12.9235V13.3155C213.284 13.6748 213.17 13.977 212.941 14.222C212.713 14.4507 212.313 14.565 211.741 14.565ZM206.204 28.334H210.761V19.024H206.204V17.358H212.721V28.334H216.984V30H206.204V28.334ZM225.794 30.294C224.471 30.294 223.328 30.0735 222.364 29.6325C221.417 29.1752 220.609 28.5708 219.939 27.8195L221.262 26.668C221.866 27.305 222.528 27.795 223.246 28.138C223.965 28.481 224.831 28.6525 225.843 28.6525C226.823 28.6525 227.624 28.481 228.244 28.138C228.881 27.7787 229.2 27.2233 229.2 26.472C229.2 26.1453 229.135 25.8758 229.004 25.6635C228.89 25.4348 228.726 25.2552 228.514 25.1245C228.302 24.9938 228.065 24.8958 227.803 24.8305C227.542 24.7488 227.264 24.6835 226.97 24.6345L224.986 24.3405C224.545 24.2752 224.063 24.1853 223.54 24.071C223.034 23.9567 222.569 23.777 222.144 23.532C221.719 23.2707 221.36 22.9277 221.066 22.503C220.788 22.0783 220.649 21.523 220.649 20.837C220.649 20.2 220.772 19.6528 221.017 19.1955C221.278 18.7218 221.638 18.3298 222.095 18.0195C222.552 17.6928 223.091 17.456 223.712 17.309C224.333 17.1457 225.01 17.064 225.745 17.064C226.889 17.064 227.877 17.2437 228.71 17.603C229.559 17.9623 230.286 18.4605 230.89 19.0975L229.616 20.298C229.469 20.1183 229.282 19.9387 229.053 19.759C228.841 19.563 228.571 19.3915 228.244 19.2445C227.934 19.0812 227.567 18.9505 227.142 18.8525C226.717 18.7545 226.227 18.7055 225.672 18.7055C224.676 18.7055 223.908 18.877 223.369 19.22C222.846 19.563 222.585 20.0612 222.585 20.7145C222.585 21.0412 222.642 21.3188 222.756 21.5475C222.887 21.7598 223.059 21.9313 223.271 22.062C223.483 22.1927 223.72 22.2988 223.981 22.3805C224.259 22.4458 224.537 22.503 224.814 22.552L226.799 22.846C227.256 22.9113 227.738 23.0012 228.244 23.1155C228.751 23.2298 229.216 23.4177 229.641 23.679C230.066 23.924 230.417 24.2588 230.694 24.6835C230.988 25.1082 231.135 25.6635 231.135 26.3495C231.135 27.6072 230.645 28.579 229.665 29.265C228.702 29.951 227.411 30.294 225.794 30.294Z" fill="#F5E0DC"/>
<path d="M18.096 7.984C17.0695 10.2121 16.7507 12.7012 17.1822 15.1161C17.6138 17.531 18.7752 19.7555 20.5098 21.4902C22.2444 23.2248 24.469 24.3861 26.8839 24.8177C29.2987 25.2493 31.7879 24.9304 34.016 23.904C32.6906 29.872 27.3666 34.3333 21 34.3333C13.636 34.3333 7.66663 28.364 7.66663 21C7.66663 14.6333 12.128 9.30933 18.096 7.984ZM29.2186 8.05467L30.3333 8.33333V9.66667L29.2186 9.94533C28.7498 10.0626 28.3217 10.305 27.98 10.6467C27.6383 10.9884 27.3959 11.4165 27.2786 11.8853L27 13H25.6666L25.388 11.8853C25.2707 11.4165 25.0283 10.9884 24.6866 10.6467C24.3449 10.305 23.9168 10.0626 23.448 9.94533L22.3333 9.66667V8.33333L23.448 8.05467C23.9165 7.93721 24.3444 7.69469 24.6858 7.353C25.0273 7.01132 25.2695 6.5833 25.3866 6.11467L25.6666 5H27L27.2786 6.11467C27.3959 6.58347 27.6383 7.01159 27.98 7.3533C28.3217 7.695 28.7498 7.93742 29.2186 8.05467ZM35.8853 14.7213L37 15V16.3333L35.8853 16.612C35.4165 16.7292 34.9884 16.9717 34.6467 17.3134C34.305 17.6551 34.0625 18.0832 33.9453 18.552L33.6666 19.6667H32.3333L32.0546 18.552C31.9374 18.0832 31.695 17.6551 31.3533 17.3134C31.0116 16.9717 30.5834 16.7292 30.1146 16.612L29 16.3333V15L30.1146 14.7213C30.5834 14.6041 31.0116 14.3617 31.3533 14.02C31.695 13.6783 31.9374 13.2501 32.0546 12.7813L32.3333 11.6667H33.6666L33.9453 12.7813C34.0625 13.2501 34.305 13.6783 34.6467 14.02C34.9884 14.3617 35.4165 14.6041 35.8853 14.7213Z" fill="#F5E0DC"/>
</svg>
