<svg width="42" height="42" viewBox="0 0 42 42" fill="none" xmlns="http://www.w3.org/2000/svg">
<rect width="42" height="42" rx="4" fill="#11111B"/>
<path d="M18.096 7.984C17.0695 10.2121 16.7507 12.7012 17.1822 15.1161C17.6138 17.531 18.7752 19.7555 20.5098 21.4902C22.2444 23.2248 24.469 24.3861 26.8839 24.8177C29.2987 25.2493 31.7879 24.9304 34.016 23.904C32.6906 29.872 27.3666 34.3333 21 34.3333C13.636 34.3333 7.66663 28.364 7.66663 21C7.66663 14.6333 12.128 9.30933 18.096 7.984ZM29.2186 8.05467L30.3333 8.33333V9.66667L29.2186 9.94533C28.7498 10.0626 28.3217 10.305 27.98 10.6467C27.6383 10.9884 27.3959 11.4165 27.2786 11.8853L27 13H25.6666L25.388 11.8853C25.2707 11.4165 25.0283 10.9884 24.6866 10.6467C24.3449 10.305 23.9168 10.0626 23.448 9.94533L22.3333 9.66667V8.33333L23.448 8.05467C23.9165 7.93721 24.3444 7.69469 24.6858 7.353C25.0273 7.01132 25.2695 6.5833 25.3866 6.11467L25.6666 5H27L27.2786 6.11467C27.3959 6.58347 27.6383 7.01159 27.98 7.3533C28.3217 7.695 28.7498 7.93742 29.2186 8.05467ZM35.8853 14.7213L37 15V16.3333L35.8853 16.612C35.4165 16.7292 34.9884 16.9717 34.6467 17.3134C34.305 17.6551 34.0625 18.0832 33.9453 18.552L33.6666 19.6667H32.3333L32.0546 18.552C31.9374 18.0832 31.695 17.6551 31.3533 17.3134C31.0116 16.9717 30.5834 16.7292 30.1146 16.612L29 16.3333V15L30.1146 14.7213C30.5834 14.6041 31.0116 14.3617 31.3533 14.02C31.695 13.6783 31.9374 13.2501 32.0546 12.7813L32.3333 11.6667H33.6666L33.9453 12.7813C34.0625 13.2501 34.305 13.6783 34.6467 14.02C34.9884 14.3617 35.4165 14.6041 35.8853 14.7213Z" fill="#F5E0DC"/>
</svg>
