<svg width="420" height="221" viewBox="0 0 420 221" fill="none" xmlns="http://www.w3.org/2000/svg">
<rect width="420" height="220" rx="8" fill="#1E1E2E"/>
<path d="M42.095 24.616H43.799L45.215 35.32H45.431L47.543 24.616H49.655L51.767 35.32H51.983L53.399 24.616H55.055L53.159 37H50.663L48.695 26.632H48.503L46.487 37H43.991L42.095 24.616ZM63.7336 21.88C63.1736 21.88 62.7816 21.768 62.5576 21.544C62.3336 21.304 62.2216 21.008 62.2216 20.656V20.272C62.2216 19.92 62.3336 19.632 62.5576 19.408C62.7816 19.168 63.1736 19.048 63.7336 19.048C64.2936 19.048 64.6856 19.168 64.9096 19.408C65.1336 19.632 65.2456 19.92 65.2456 20.272V20.656C65.2456 21.008 65.1336 21.304 64.9096 21.544C64.6856 21.768 64.2936 21.88 63.7336 21.88ZM58.3096 35.368H62.7736V26.248H58.3096V24.616H64.6936V35.368H68.8696V37H58.3096V35.368ZM72.6763 19.24H74.5963V30.448H74.6923L76.8523 28.408L80.9803 24.616H83.3323L78.1963 29.464L83.9323 37H81.5563L76.7323 30.568L74.5963 32.512V37H72.6763V19.24ZM92.5149 21.88C91.9549 21.88 91.5629 21.768 91.3389 21.544C91.1149 21.304 91.0029 21.008 91.0029 20.656V20.272C91.0029 19.92 91.1149 19.632 91.3389 19.408C91.5629 19.168 91.9549 19.048 92.5149 19.048C93.0749 19.048 93.4669 19.168 93.6909 19.408C93.9149 19.632 94.0269 19.92 94.0269 20.272V20.656C94.0269 21.008 93.9149 21.304 93.6909 21.544C93.4669 21.768 93.0749 21.88 92.5149 21.88ZM87.0909 35.368H91.5549V26.248H87.0909V24.616H93.4749V35.368H97.6509V37H87.0909V35.368ZM123.792 29.392H117.264V37H115.248V20.248H117.264V27.64H123.792V20.248H125.808V37H123.792V29.392ZM135.135 37.288C134.239 37.288 133.431 37.136 132.711 36.832C132.007 36.528 131.399 36.096 130.887 35.536C130.391 34.96 130.007 34.28 129.735 33.496C129.463 32.696 129.327 31.808 129.327 30.832C129.327 29.84 129.463 28.944 129.735 28.144C130.023 27.344 130.415 26.664 130.911 26.104C131.407 25.528 131.999 25.088 132.687 24.784C133.391 24.48 134.167 24.328 135.015 24.328C135.847 24.328 136.599 24.48 137.271 24.784C137.959 25.088 138.543 25.512 139.023 26.056C139.503 26.584 139.871 27.216 140.127 27.952C140.383 28.688 140.511 29.496 140.511 30.376V31.288H131.343V31.864C131.343 32.408 131.431 32.912 131.607 33.376C131.783 33.84 132.031 34.24 132.351 34.576C132.687 34.912 133.087 35.176 133.551 35.368C134.031 35.544 134.559 35.632 135.135 35.632C135.967 35.632 136.687 35.44 137.295 35.056C137.903 34.672 138.367 34.144 138.687 33.472L140.103 34.432C139.735 35.264 139.119 35.952 138.255 36.496C137.407 37.024 136.367 37.288 135.135 37.288ZM135.015 25.912C134.487 25.912 133.999 26.008 133.551 26.2C133.103 26.392 132.711 26.656 132.375 26.992C132.055 27.328 131.799 27.728 131.607 28.192C131.431 28.64 131.343 29.136 131.343 29.68V29.848H138.447V29.584C138.447 29.04 138.359 28.544 138.183 28.096C138.023 27.648 137.791 27.264 137.487 26.944C137.199 26.608 136.839 26.352 136.407 26.176C135.991 26 135.527 25.912 135.015 25.912ZM144.029 35.368H148.349V20.872H144.029V19.24H150.269V35.368H154.589V37H144.029V35.368ZM158.42 35.368H162.74V20.872H158.42V19.24H164.66V35.368H168.98V37H158.42V35.368ZM178.091 37.288C177.227 37.288 176.443 37.136 175.739 36.832C175.051 36.528 174.459 36.096 173.963 35.536C173.483 34.96 173.115 34.28 172.859 33.496C172.603 32.696 172.475 31.8 172.475 30.808C172.475 29.832 172.603 28.944 172.859 28.144C173.115 27.344 173.483 26.664 173.963 26.104C174.459 25.528 175.051 25.088 175.739 24.784C176.443 24.48 177.227 24.328 178.091 24.328C178.955 24.328 179.731 24.48 180.419 24.784C181.123 25.088 181.715 25.528 182.195 26.104C182.691 26.664 183.067 27.344 183.323 28.144C183.579 28.944 183.707 29.832 183.707 30.808C183.707 31.8 183.579 32.696 183.323 33.496C183.067 34.28 182.691 34.96 182.195 35.536C181.715 36.096 181.123 36.528 180.419 36.832C179.731 37.136 178.955 37.288 178.091 37.288ZM178.091 35.632C179.163 35.632 180.027 35.312 180.683 34.672C181.339 34.032 181.667 33.04 181.667 31.696V29.92C181.667 28.576 181.339 27.584 180.683 26.944C180.027 26.304 179.163 25.984 178.091 25.984C177.019 25.984 176.155 26.304 175.499 26.944C174.843 27.584 174.515 28.576 174.515 29.92V31.696C174.515 33.04 174.843 34.032 175.499 34.672C176.155 35.312 177.019 35.632 178.091 35.632ZM186.721 41.056V39.28H198.241V41.056H186.721ZM201.832 37L200.512 20.248H202.312L203.008 29.848L203.368 34.912H203.56L205.768 24.616H208.024L210.232 34.912H210.424L210.784 29.848L211.48 20.248H213.232L211.912 37H209.008L206.968 26.992H206.776L204.736 37H201.832ZM221.263 37.288C220.399 37.288 219.615 37.136 218.911 36.832C218.223 36.528 217.631 36.096 217.135 35.536C216.655 34.96 216.287 34.28 216.031 33.496C215.775 32.696 215.646 31.8 215.646 30.808C215.646 29.832 215.775 28.944 216.031 28.144C216.287 27.344 216.655 26.664 217.135 26.104C217.631 25.528 218.223 25.088 218.911 24.784C219.615 24.48 220.399 24.328 221.263 24.328C222.127 24.328 222.903 24.48 223.591 24.784C224.295 25.088 224.887 25.528 225.367 26.104C225.863 26.664 226.239 27.344 226.495 28.144C226.751 28.944 226.879 29.832 226.879 30.808C226.879 31.8 226.751 32.696 226.495 33.496C226.239 34.28 225.863 34.96 225.367 35.536C224.887 36.096 224.295 36.528 223.591 36.832C222.903 37.136 222.127 37.288 221.263 37.288ZM221.263 35.632C222.335 35.632 223.199 35.312 223.855 34.672C224.511 34.032 224.839 33.04 224.839 31.696V29.92C224.839 28.576 224.511 27.584 223.855 26.944C223.199 26.304 222.335 25.984 221.263 25.984C220.191 25.984 219.327 26.304 218.671 26.944C218.015 27.584 217.687 28.576 217.687 29.92V31.696C217.687 33.04 218.015 34.032 218.671 34.672C219.327 35.312 220.191 35.632 221.263 35.632ZM230.301 35.368H233.925V26.248H230.301V24.616H235.845V27.736H235.965C236.221 26.76 236.701 26 237.405 25.456C238.125 24.896 239.037 24.616 240.141 24.616H241.869V26.536H239.541C238.437 26.536 237.541 26.856 236.853 27.496C236.181 28.136 235.845 28.976 235.845 30.016V35.368H240.645V37H230.301V35.368ZM244.764 35.368H249.084V20.872H244.764V19.24H251.004V35.368H255.324V37H244.764V35.368ZM267.434 34.984H267.338C266.538 36.52 265.266 37.288 263.522 37.288C262.002 37.288 260.81 36.72 259.946 35.584C259.098 34.448 258.674 32.856 258.674 30.808C258.674 28.76 259.098 27.168 259.946 26.032C260.81 24.896 262.002 24.328 263.522 24.328C265.266 24.328 266.538 25.096 267.338 26.632H267.434V19.24H269.354V37H267.434V34.984ZM264.266 35.584C264.698 35.584 265.106 35.528 265.49 35.416C265.874 35.304 266.21 35.144 266.498 34.936C266.786 34.712 267.01 34.448 267.17 34.144C267.346 33.824 267.434 33.456 267.434 33.04V28.576C267.434 28.16 267.346 27.8 267.17 27.496C267.01 27.176 266.786 26.912 266.498 26.704C266.21 26.48 265.874 26.312 265.49 26.2C265.106 26.088 264.698 26.032 264.266 26.032C263.146 26.032 262.274 26.376 261.65 27.064C261.042 27.736 260.738 28.632 260.738 29.752V31.864C260.738 32.984 261.042 33.888 261.65 34.576C262.274 35.248 263.146 35.584 264.266 35.584Z" fill="#A6E3A1"/>
<path d="M20.0247 23.04L32.9847 29.52L20.0247 36V23.04Z" fill="#B4BEFE"/>
<rect x="10" y="191" width="397" height="29" fill="#45475A"/>
<path d="M0 191H136V220H8C3.58172 220 0 216.418 0 212V191Z" fill="#F5C2E7"/>
<path d="M374 191H420V212C420 216.418 416.418 220 412 220H374V191Z" fill="#CBA6F7"/>
<path d="M391.008 213.24C390.154 213.24 389.421 213.08 388.808 212.76C388.194 212.427 387.688 211.953 387.288 211.34C386.888 210.727 386.594 209.973 386.408 209.08C386.221 208.187 386.128 207.167 386.128 206.02C386.128 204.887 386.221 203.873 386.408 202.98C386.594 202.073 386.888 201.313 387.288 200.7C387.688 200.087 388.194 199.62 388.808 199.3C389.421 198.967 390.154 198.8 391.008 198.8C391.861 198.8 392.594 198.967 393.208 199.3C393.821 199.62 394.328 200.087 394.728 200.7C395.128 201.313 395.421 202.073 395.608 202.98C395.794 203.873 395.888 204.887 395.888 206.02C395.888 207.167 395.794 208.187 395.608 209.08C395.421 209.973 395.128 210.727 394.728 211.34C394.328 211.953 393.821 212.427 393.208 212.76C392.594 213.08 391.861 213.24 391.008 213.24ZM391.008 211.78C391.568 211.78 392.048 211.673 392.448 211.46C392.848 211.233 393.168 210.92 393.408 210.52C393.661 210.12 393.848 209.64 393.968 209.08C394.088 208.507 394.148 207.867 394.148 207.16V204.88C394.148 204.187 394.088 203.553 393.968 202.98C393.848 202.407 393.661 201.92 393.408 201.52C393.168 201.12 392.848 200.813 392.448 200.6C392.048 200.373 391.568 200.26 391.008 200.26C390.448 200.26 389.968 200.373 389.568 200.6C389.168 200.813 388.841 201.12 388.588 201.52C388.348 201.92 388.168 202.407 388.048 202.98C387.928 203.553 387.868 204.187 387.868 204.88V207.16C387.868 207.867 387.928 208.507 388.048 209.08C388.168 209.64 388.348 210.12 388.588 210.52C388.841 210.92 389.168 211.233 389.568 211.46C389.968 211.673 390.448 211.78 391.008 211.78ZM391.008 207.2C390.541 207.2 390.214 207.107 390.028 206.92C389.854 206.733 389.768 206.507 389.768 206.24V205.8C389.768 205.533 389.854 205.307 390.028 205.12C390.214 204.933 390.541 204.84 391.008 204.84C391.474 204.84 391.794 204.933 391.968 205.12C392.154 205.307 392.248 205.533 392.248 205.8V206.24C392.248 206.507 392.154 206.733 391.968 206.92C391.794 207.107 391.474 207.2 391.008 207.2ZM400.38 205.88C399.5 205.88 398.78 205.587 398.22 205C397.673 204.4 397.4 203.513 397.4 202.34C397.4 201.167 397.673 200.287 398.22 199.7C398.78 199.1 399.5 198.8 400.38 198.8C401.26 198.8 401.973 199.1 402.52 199.7C403.08 200.287 403.36 201.167 403.36 202.34C403.36 203.513 403.08 204.4 402.52 205C401.973 205.587 401.26 205.88 400.38 205.88ZM400.38 204.8C400.86 204.8 401.247 204.633 401.54 204.3C401.847 203.967 402 203.48 402 202.84V201.84C402 201.2 401.847 200.713 401.54 200.38C401.247 200.047 400.86 199.88 400.38 199.88C399.9 199.88 399.507 200.047 399.2 200.38C398.907 200.713 398.76 201.2 398.76 201.84V202.84C398.76 203.48 398.907 203.967 399.2 204.3C399.507 204.633 399.9 204.8 400.38 204.8ZM407.2 199.04H408.64L405.44 205.04H404L407.2 199.04ZM400.56 207H402L398.8 213H397.36L400.56 207ZM405.62 213.24C404.74 213.24 404.02 212.947 403.46 212.36C402.913 211.76 402.64 210.873 402.64 209.7C402.64 208.527 402.913 207.647 403.46 207.06C404.02 206.46 404.74 206.16 405.62 206.16C406.5 206.16 407.213 206.46 407.76 207.06C408.32 207.647 408.6 208.527 408.6 209.7C408.6 210.873 408.32 211.76 407.76 212.36C407.213 212.947 406.5 213.24 405.62 213.24ZM405.62 212.16C406.1 212.16 406.487 211.993 406.78 211.66C407.087 211.327 407.24 210.84 407.24 210.2V209.2C407.24 208.56 407.087 208.073 406.78 207.74C406.487 207.407 406.1 207.24 405.62 207.24C405.14 207.24 404.747 207.407 404.44 207.74C404.147 208.073 404 208.56 404 209.2V210.2C404 210.84 404.147 211.327 404.44 211.66C404.747 211.993 405.14 212.16 405.62 212.16Z" fill="black"/>
<path d="M11.7335 215L10.7015 198.248H13.7975L14.2775 208.28L14.4215 211.448H14.6375L16.0775 201.896H19.3175L20.7575 211.448H20.9735L21.1175 208.376L21.5975 198.248H24.5735L23.5415 215H18.9815L17.7575 205.76H17.5175L16.2935 215H11.7335ZM32.7961 201.032C31.9961 201.032 31.4361 200.872 31.1161 200.552C30.8121 200.216 30.6601 199.816 30.6601 199.352V198.656C30.6601 198.176 30.8121 197.776 31.1161 197.456C31.4361 197.136 31.9961 196.976 32.7961 196.976C33.5961 196.976 34.1481 197.136 34.4521 197.456C34.7721 197.776 34.9321 198.176 34.9321 198.656V199.352C34.9321 199.816 34.7721 200.216 34.4521 200.552C34.1481 200.872 33.5961 201.032 32.7961 201.032ZM27.0841 212.24H31.0201V205.376H27.0841V202.616H34.5721V212.24H38.2201V215H27.0841V212.24ZM40.7788 197.24H44.3308V207.32H44.4988L46.1548 205.376L48.7468 202.616H52.8268L48.0268 207.512L53.3307 215H49.1068L45.5068 209.528L44.3308 210.704V215H40.7788V197.24ZM61.5774 201.032C60.7774 201.032 60.2174 200.872 59.8974 200.552C59.5934 200.216 59.4414 199.816 59.4414 199.352V198.656C59.4414 198.176 59.5934 197.776 59.8974 197.456C60.2174 197.136 60.7774 196.976 61.5774 196.976C62.3774 196.976 62.9294 197.136 63.2334 197.456C63.5534 197.776 63.7134 198.176 63.7134 198.656V199.352C63.7134 199.816 63.5534 200.216 63.2334 200.552C62.9294 200.872 62.3774 201.032 61.5774 201.032ZM55.8654 212.24H59.8014V205.376H55.8654V202.616H63.3534V212.24H67.0014V215H55.8654V212.24ZM89.9746 215.288C87.7346 215.288 86.0706 214.536 84.9826 213.032C83.9106 211.512 83.3746 209.376 83.3746 206.624C83.3746 203.872 83.9106 201.744 84.9826 200.24C86.0706 198.72 87.7346 197.96 89.9746 197.96C90.8386 197.96 91.5986 198.08 92.2546 198.32C92.9266 198.544 93.5026 198.864 93.9826 199.28C94.4626 199.696 94.8546 200.2 95.1586 200.792C95.4786 201.384 95.7266 202.048 95.9026 202.784L92.5426 203.6C92.4466 203.2 92.3346 202.832 92.2066 202.496C92.0786 202.16 91.9106 201.872 91.7026 201.632C91.5106 201.392 91.2626 201.208 90.9586 201.08C90.6706 200.936 90.3186 200.864 89.9026 200.864C88.9266 200.864 88.2306 201.248 87.8146 202.016C87.4146 202.768 87.2146 203.816 87.2146 205.16V208.088C87.2146 209.432 87.4146 210.488 87.8146 211.256C88.2306 212.008 88.9266 212.384 89.9026 212.384C90.7346 212.384 91.3346 212.128 91.7026 211.616C92.0866 211.104 92.3666 210.448 92.5426 209.648L95.9026 210.464C95.7266 211.2 95.4786 211.864 95.1586 212.456C94.8546 213.048 94.4626 213.56 93.9826 213.992C93.5026 214.408 92.9266 214.728 92.2546 214.952C91.5986 215.176 90.8386 215.288 89.9746 215.288ZM98.9893 215V198.248H102.613V212.048H109.813V215H98.9893ZM112.972 215V212.336H116.572V200.912H112.972V198.248H123.772V200.912H120.172V212.336H123.772V215H112.972Z" fill="black"/>
<path d="M23.1358 53.24H25.7518L24.3838 61.064H19.8238L23.1358 53.24ZM29.3278 53.24H31.9438L30.5758 61.064H26.0158L29.3278 53.24ZM42.7104 63.992H38.4864V71H34.8624V54.248H38.4864V61.04H42.7104V54.248H46.3344V71H42.7104V63.992ZM55.3251 71.288C53.2451 71.288 51.6691 70.712 50.5971 69.56C49.5251 68.408 48.9891 66.84 48.9891 64.856C48.9891 63.848 49.1251 62.944 49.3971 62.144C49.6851 61.328 50.0851 60.64 50.5971 60.08C51.1251 59.504 51.7571 59.072 52.4931 58.784C53.2451 58.48 54.0851 58.328 55.0131 58.328C55.9411 58.328 56.7731 58.48 57.5091 58.784C58.2451 59.072 58.8691 59.488 59.3811 60.032C59.8931 60.576 60.2851 61.24 60.5571 62.024C60.8451 62.792 60.9891 63.656 60.9891 64.616V65.672H52.5171V65.888C52.5171 66.688 52.7651 67.336 53.2611 67.832C53.7571 68.312 54.4851 68.552 55.4451 68.552C56.1811 68.552 56.8131 68.416 57.3411 68.144C57.8691 67.856 58.3251 67.48 58.7091 67.016L60.6291 69.104C60.1491 69.696 59.4771 70.208 58.6131 70.64C57.7491 71.072 56.6531 71.288 55.3251 71.288ZM55.0371 60.872C54.2691 60.872 53.6531 61.112 53.1891 61.592C52.7411 62.056 52.5171 62.688 52.5171 63.488V63.68H57.5091V63.488C57.5091 62.672 57.2851 62.032 56.8371 61.568C56.4051 61.104 55.8051 60.872 55.0371 60.872ZM63.8117 68.24H67.6037V56H63.8117V53.24H71.1557V68.24H74.9477V71H63.8117V68.24ZM78.2023 68.24H81.9943V56H78.2023V53.24H85.5463V68.24H89.3383V71H78.2023V68.24ZM98.1609 71.288C97.2009 71.288 96.3369 71.144 95.5689 70.856C94.8009 70.552 94.1449 70.12 93.6009 69.56C93.0729 69 92.6649 68.32 92.3769 67.52C92.0889 66.72 91.9449 65.816 91.9449 64.808C91.9449 63.8 92.0889 62.896 92.3769 62.096C92.6649 61.296 93.0729 60.616 93.6009 60.056C94.1449 59.496 94.8009 59.072 95.5689 58.784C96.3369 58.48 97.2009 58.328 98.1609 58.328C99.1209 58.328 99.9849 58.48 100.753 58.784C101.521 59.072 102.169 59.496 102.697 60.056C103.241 60.616 103.657 61.296 103.945 62.096C104.233 62.896 104.377 63.8 104.377 64.808C104.377 65.816 104.233 66.72 103.945 67.52C103.657 68.32 103.241 69 102.697 69.56C102.169 70.12 101.521 70.552 100.753 70.856C99.9849 71.144 99.1209 71.288 98.1609 71.288ZM98.1609 68.648C98.9609 68.648 99.5849 68.4 100.033 67.904C100.481 67.408 100.705 66.704 100.705 65.792V63.824C100.705 62.912 100.481 62.208 100.033 61.712C99.5849 61.216 98.9609 60.968 98.1609 60.968C97.3609 60.968 96.7369 61.216 96.2889 61.712C95.8409 62.208 95.6169 62.912 95.6169 63.824V65.792C95.6169 66.704 95.8409 67.408 96.2889 67.904C96.7369 68.4 97.3609 68.648 98.1609 68.648ZM110.8 66.824H115.36L112.072 74.624H109.432L110.8 66.824ZM135.429 71L134.397 54.248H137.493L137.973 64.28L138.117 67.448H138.333L139.773 57.896H143.013L144.453 67.448H144.669L144.813 64.376L145.293 54.248H148.269L147.237 71H142.677L141.453 61.76H141.213L139.989 71H135.429ZM155.723 71.288C154.763 71.288 153.899 71.144 153.131 70.856C152.363 70.552 151.707 70.12 151.163 69.56C150.635 69 150.227 68.32 149.939 67.52C149.651 66.72 149.507 65.816 149.507 64.808C149.507 63.8 149.651 62.896 149.939 62.096C150.227 61.296 150.635 60.616 151.163 60.056C151.707 59.496 152.363 59.072 153.131 58.784C153.899 58.48 154.763 58.328 155.723 58.328C156.683 58.328 157.547 58.48 158.315 58.784C159.083 59.072 159.731 59.496 160.259 60.056C160.803 60.616 161.219 61.296 161.507 62.096C161.795 62.896 161.939 63.8 161.939 64.808C161.939 65.816 161.795 66.72 161.507 67.52C161.219 68.32 160.803 69 160.259 69.56C159.731 70.12 159.083 70.552 158.315 70.856C157.547 71.144 156.683 71.288 155.723 71.288ZM155.723 68.648C156.523 68.648 157.147 68.4 157.595 67.904C158.043 67.408 158.267 66.704 158.267 65.792V63.824C158.267 62.912 158.043 62.208 157.595 61.712C157.147 61.216 156.523 60.968 155.723 60.968C154.923 60.968 154.299 61.216 153.851 61.712C153.403 62.208 153.179 62.912 153.179 63.824V65.792C153.179 66.704 153.403 67.408 153.851 67.904C154.299 68.4 154.923 68.648 155.723 68.648ZM164.69 68.24H167.546V61.376H164.69V58.616H171.098V62.12H171.266C171.378 61.672 171.53 61.24 171.722 60.824C171.93 60.392 172.186 60.016 172.49 59.696C172.81 59.36 173.194 59.096 173.642 58.904C174.09 58.712 174.618 58.616 175.226 58.616H176.402V61.88H173.762C172.882 61.88 172.218 62.144 171.77 62.672C171.322 63.184 171.098 63.816 171.098 64.568V68.24H175.178V71H164.69V68.24ZM178.937 68.24H182.729V56H178.937V53.24H186.281V68.24H190.073V71H178.937V68.24ZM201.127 68.744H200.959C200.639 69.496 200.191 70.112 199.615 70.592C199.055 71.056 198.279 71.288 197.287 71.288C196.599 71.288 195.967 71.16 195.391 70.904C194.831 70.648 194.343 70.256 193.927 69.728C193.527 69.2 193.207 68.528 192.967 67.712C192.743 66.896 192.631 65.928 192.631 64.808C192.631 63.688 192.743 62.72 192.967 61.904C193.207 61.088 193.527 60.416 193.927 59.888C194.343 59.36 194.831 58.968 195.391 58.712C195.967 58.456 196.599 58.328 197.287 58.328C197.783 58.328 198.223 58.392 198.607 58.52C198.991 58.648 199.327 58.824 199.615 59.048C199.919 59.272 200.175 59.544 200.383 59.864C200.607 60.168 200.799 60.504 200.959 60.872H201.127V53.24H204.679V71H201.127V68.744ZM198.823 68.528C199.447 68.528 199.983 68.376 200.431 68.072C200.895 67.768 201.127 67.288 201.127 66.632V62.984C201.127 62.328 200.895 61.848 200.431 61.544C199.983 61.24 199.447 61.088 198.823 61.088C198.023 61.088 197.407 61.336 196.975 61.832C196.543 62.312 196.327 62.984 196.327 63.848V65.768C196.327 66.632 196.543 67.312 196.975 67.808C197.407 68.288 198.023 68.528 198.823 68.528ZM212.71 65.168L211.342 59.12V54.248H215.23V59.12L213.862 65.168H212.71ZM213.286 71.288C212.422 71.288 211.814 71.104 211.462 70.736C211.11 70.368 210.934 69.928 210.934 69.416V68.648C210.934 68.152 211.11 67.72 211.462 67.352C211.83 66.984 212.438 66.8 213.286 66.8C214.134 66.8 214.734 66.984 215.086 67.352C215.454 67.72 215.638 68.152 215.638 68.648V69.416C215.638 69.928 215.462 70.368 215.11 70.736C214.758 71.104 214.15 71.288 213.286 71.288ZM223.357 53.24H227.917L224.605 61.064H221.989L223.357 53.24ZM229.549 53.24H234.109L230.797 61.064H228.181L229.549 53.24ZM250.674 58.616H254.226V60.872H254.394C254.698 60.136 255.138 59.528 255.714 59.048C256.29 58.568 257.074 58.328 258.066 58.328C258.754 58.328 259.378 58.456 259.938 58.712C260.514 58.968 261.002 59.36 261.402 59.888C261.818 60.416 262.138 61.088 262.362 61.904C262.602 62.72 262.722 63.688 262.722 64.808C262.722 65.928 262.602 66.896 262.362 67.712C262.138 68.528 261.818 69.2 261.402 69.728C261.002 70.256 260.514 70.648 259.938 70.904C259.378 71.16 258.754 71.288 258.066 71.288C257.074 71.288 256.29 71.056 255.714 70.592C255.138 70.112 254.698 69.496 254.394 68.744H254.226V75.8H250.674V58.616ZM256.53 68.528C257.33 68.528 257.946 68.288 258.378 67.808C258.81 67.312 259.026 66.632 259.026 65.768V63.848C259.026 62.984 258.81 62.312 258.378 61.832C257.946 61.336 257.33 61.088 256.53 61.088C255.906 61.088 255.362 61.24 254.898 61.544C254.45 61.848 254.226 62.328 254.226 62.984V66.632C254.226 67.288 254.45 67.768 254.898 68.072C255.362 68.376 255.906 68.528 256.53 68.528ZM265.424 68.24H268.28V61.376H265.424V58.616H271.832V62.12H272C272.112 61.672 272.264 61.24 272.456 60.824C272.664 60.392 272.92 60.016 273.224 59.696C273.544 59.36 273.928 59.096 274.376 58.904C274.824 58.712 275.352 58.616 275.96 58.616H277.136V61.88H274.496C273.616 61.88 272.952 62.144 272.504 62.672C272.056 63.184 271.832 63.816 271.832 64.568V68.24H275.912V71H265.424V68.24ZM285.239 71.288C284.279 71.288 283.415 71.144 282.647 70.856C281.879 70.552 281.223 70.12 280.679 69.56C280.151 69 279.743 68.32 279.455 67.52C279.167 66.72 279.023 65.816 279.023 64.808C279.023 63.8 279.167 62.896 279.455 62.096C279.743 61.296 280.151 60.616 280.679 60.056C281.223 59.496 281.879 59.072 282.647 58.784C283.415 58.48 284.279 58.328 285.239 58.328C286.199 58.328 287.063 58.48 287.831 58.784C288.599 59.072 289.247 59.496 289.775 60.056C290.319 60.616 290.735 61.296 291.023 62.096C291.311 62.896 291.455 63.8 291.455 64.808C291.455 65.816 291.311 66.72 291.023 67.52C290.735 68.32 290.319 69 289.775 69.56C289.247 70.12 288.599 70.552 287.831 70.856C287.063 71.144 286.199 71.288 285.239 71.288ZM285.239 68.648C286.039 68.648 286.663 68.4 287.111 67.904C287.559 67.408 287.783 66.704 287.783 65.792V63.824C287.783 62.912 287.559 62.208 287.111 61.712C286.663 61.216 286.039 60.968 285.239 60.968C284.439 60.968 283.815 61.216 283.367 61.712C282.919 62.208 282.695 62.912 282.695 63.824V65.792C282.695 66.704 282.919 67.408 283.367 67.904C283.815 68.4 284.439 68.648 285.239 68.648ZM306.422 72.248C306.422 73.56 305.87 74.528 304.766 75.152C303.662 75.776 301.926 76.088 299.558 76.088C298.374 76.088 297.398 76.016 296.63 75.872C295.862 75.744 295.246 75.552 294.782 75.296C294.334 75.04 294.014 74.736 293.822 74.384C293.646 74.032 293.558 73.648 293.558 73.232C293.558 72.528 293.766 71.992 294.182 71.624C294.598 71.272 295.182 71 295.934 70.808V70.664C295.406 70.504 294.982 70.28 294.662 69.992C294.358 69.688 294.206 69.264 294.206 68.72C294.206 68.112 294.406 67.664 294.806 67.376C295.222 67.088 295.766 66.864 296.438 66.704V66.56C295.702 66.208 295.126 65.712 294.71 65.072C294.31 64.432 294.11 63.656 294.11 62.744C294.11 62.024 294.238 61.392 294.494 60.848C294.75 60.288 295.11 59.824 295.574 59.456C296.054 59.088 296.622 58.808 297.278 58.616C297.934 58.424 298.67 58.328 299.486 58.328C300.27 58.328 300.998 58.416 301.67 58.592V57.92C301.67 57.44 301.838 57.04 302.174 56.72C302.51 56.4 302.974 56.24 303.566 56.24H305.75V58.832H302.774V59.048C303.446 59.4 303.966 59.888 304.334 60.512C304.718 61.12 304.91 61.864 304.91 62.744C304.91 63.464 304.782 64.096 304.526 64.64C304.27 65.184 303.902 65.648 303.422 66.032C302.942 66.4 302.366 66.68 301.694 66.872C301.038 67.064 300.302 67.16 299.486 67.16C299.118 67.16 298.766 67.144 298.43 67.112C298.094 67.064 297.774 67 297.47 66.92C297.294 67.016 297.142 67.136 297.014 67.28C296.902 67.424 296.846 67.608 296.846 67.832C296.846 68.024 296.894 68.176 296.99 68.288C297.086 68.4 297.214 68.488 297.374 68.552C297.55 68.6 297.75 68.632 297.974 68.648C298.198 68.664 298.43 68.672 298.67 68.672H301.502C302.382 68.672 303.134 68.76 303.758 68.936C304.382 69.112 304.894 69.36 305.294 69.68C305.694 70 305.982 70.376 306.158 70.808C306.334 71.24 306.422 71.72 306.422 72.248ZM303.062 72.512C303.062 72.192 302.934 71.936 302.678 71.744C302.422 71.568 301.934 71.48 301.214 71.48H296.966C296.646 71.752 296.486 72.088 296.486 72.488C296.486 72.872 296.646 73.184 296.966 73.424C297.302 73.68 297.862 73.808 298.646 73.808H300.734C301.55 73.808 302.142 73.696 302.51 73.472C302.878 73.248 303.062 72.928 303.062 72.512ZM299.486 64.904C300.206 64.904 300.726 64.728 301.046 64.376C301.382 64.024 301.55 63.576 301.55 63.032V62.456C301.55 61.912 301.382 61.464 301.046 61.112C300.726 60.76 300.206 60.584 299.486 60.584C298.782 60.584 298.27 60.76 297.95 61.112C297.63 61.464 297.47 61.912 297.47 62.456V63.032C297.47 63.576 297.63 64.024 297.95 64.376C298.27 64.728 298.782 64.904 299.486 64.904ZM308.596 68.24H311.452V61.376H308.596V58.616H315.004V62.12H315.172C315.284 61.672 315.436 61.24 315.628 60.824C315.836 60.392 316.092 60.016 316.396 59.696C316.716 59.36 317.1 59.096 317.548 58.904C317.996 58.712 318.524 58.616 319.132 58.616H320.308V61.88H317.668C316.788 61.88 316.124 62.144 315.676 62.672C315.228 63.184 315.004 63.816 315.004 64.568V68.24H319.084V71H308.596V68.24ZM332.899 71C332.163 71 331.571 70.816 331.123 70.448C330.675 70.064 330.411 69.52 330.331 68.816H330.211C329.987 69.632 329.539 70.248 328.867 70.664C328.211 71.08 327.403 71.288 326.443 71.288C325.243 71.288 324.275 70.968 323.539 70.328C322.819 69.672 322.459 68.76 322.459 67.592C322.459 66.296 322.931 65.336 323.875 64.712C324.819 64.088 326.203 63.776 328.027 63.776H330.019V63.152C330.019 62.416 329.843 61.864 329.491 61.496C329.155 61.112 328.579 60.92 327.763 60.92C327.011 60.92 326.403 61.064 325.939 61.352C325.475 61.64 325.075 62.016 324.739 62.48L322.795 60.752C323.211 60.048 323.859 59.472 324.739 59.024C325.635 58.56 326.779 58.328 328.171 58.328C329.867 58.328 331.187 58.72 332.131 59.504C333.091 60.272 333.571 61.44 333.571 63.008V68.432H334.939V71H332.899ZM327.787 68.96C328.411 68.96 328.939 68.808 329.371 68.504C329.803 68.2 330.019 67.76 330.019 67.184V65.696H328.123C326.667 65.696 325.939 66.184 325.939 67.16V67.64C325.939 68.072 326.107 68.4 326.443 68.624C326.779 68.848 327.227 68.96 327.787 68.96ZM336.322 71V58.616H339.178V60.44H339.346C339.538 59.864 339.81 59.368 340.162 58.952C340.53 58.536 341.042 58.328 341.698 58.328C342.898 58.328 343.634 59.032 343.906 60.44H344.05C344.146 60.152 344.266 59.88 344.41 59.624C344.554 59.368 344.73 59.144 344.938 58.952C345.146 58.76 345.394 58.608 345.682 58.496C345.97 58.384 346.306 58.328 346.69 58.328C348.418 58.328 349.282 59.6 349.282 62.144V71H346.426V62.504C346.426 61.928 346.322 61.528 346.114 61.304C345.922 61.064 345.666 60.944 345.346 60.944C345.042 60.944 344.778 61.048 344.554 61.256C344.346 61.448 344.242 61.752 344.242 62.168V71H341.362V62.504C341.362 61.928 341.266 61.528 341.074 61.304C340.898 61.064 340.65 60.944 340.33 60.944C340.01 60.944 339.738 61.048 339.514 61.256C339.29 61.448 339.178 61.752 339.178 62.168V71H336.322Z" fill="white"/>
<rect x="19" y="82" width="182" height="28" rx="4" fill="#181825"/>
<rect x="215" y="82" width="110" height="28" rx="4" fill="#181825"/>
<rect x="19" y="115" width="65" height="28" rx="4" fill="#181825"/>
<rect x="99" y="115" width="255" height="28" rx="4" fill="#181825"/>
<rect x="19" y="148" width="255" height="28" rx="4" fill="#181825"/>
<rect x="289" y="148" width="92" height="28" rx="4" fill="#181825"/>
</svg>
